# xmcd
# 
# Track frame offsets:
#     150
#     17324
#     34561
#     51183
#     69215
#     86163
#     105429
#     123513
#     145961
#     172737
#     189357
# 
# Disc length: 2831
# 
# Revision: 4
# Processed by: cddbd v1.5.2PL0 Copyright (c) Steve Scherf et al.
# Submitted via: fre:ac v1.0.31
# 
DISCID=800b0d0b
DTITLE=David Crosby - Croz
DYEAR=2014
DGENRE=Rock/Pop
TTITLE0=What's Broken
TTITLE1=Time I Have
TTITLE2=Holding On To Nothing
TTITLE3=The Clearing
TTITLE4=Radio
TTITLE5=Slice Of Time
TTITLE6=Set That Baggage Down
TTITLE7=If She Called
TTITLE8=Dangerous Night
TTITLE9=Morning Falling
TTITLE10=Find A Heart
EXTD=
EXTT0=
EXTT1=
EXTT2=
EXTT3=
EXTT4=
EXTT5=
EXTT6=
EXTT7=
EXTT8=
EXTT9=
EXTT10=
PLAYORDER=
